<?xml version="1.0" encoding="UTF-8"?>
<svg id="_4x_body" data-name="@4x_body" xmlns="http://www.w3.org/2000/svg" viewBox="0 0 400 400">
  <defs>
    <style>
      .cls-1 {
        fill: #fff;
      }

      .cls-2 {
        stroke-width: 2.17px;
      }

      .cls-2, .cls-3 {
        stroke: #000;
        stroke-linejoin: bevel;
      }

      .cls-3 {
        stroke-width: 2.14px;
      }
    </style>
  </defs>
  <g>
    <g>
      <path d="M394.41,352.62c-30.71,34.61-118.77,16.63-196.45,15.18-77.67,1.45-161.67,19.42-192.38-15.18-11.53-36.75,19.65-95.8,47.55-128.59,80.31-54.76,213.41-54.76,293.72,0,27.91,32.79,59.08,91.83,47.55,128.59Z"/>
      <path class="cls-1" d="M385.16,340.65c-29.25,34.61-113.12,16.63-187.09,15.18-73.97,1.45-153.97,19.42-183.22-15.18-10.98-36.75,18.71-95.8,45.29-128.59,76.48-54.76,203.25-54.76,279.73,0,26.58,32.79,56.27,91.83,45.29,128.59Z"/>
      <path d="M385.16,332.68c-29.25,34.61-113.12,16.63-187.09,15.18-73.97,1.45-153.97,19.42-183.22-15.18-10.98-36.75,18.71-95.8,45.29-128.59,76.48-54.76,203.25-54.76,279.73,0,26.58,32.79,56.27,91.83,45.29,128.59Z"/>
    </g>
    <path d="M339.87,196.19c-76.48-54.76-203.25-54.76-279.73,0C33.55,228.98,3.86,288.03,14.84,324.78c9.69,11.47,25.31,13.65,44.52,11.44,.65,2.24,1.41,4.5,2.42,6.83h0c5.53,11.77,17.15,21.18,31.81,22.68,21.4,2.34,44.76-.67,66.56-8.55,14.93-5.32,27.32-17.22,33.63-28.5,4.38-8.46,5.98-20.35,6.22-20.36s1.82,11.88,6.22,20.36c6.31,11.28,18.7,23.17,33.63,28.5,21.79,7.87,45.16,10.89,66.56,8.55,14.66-1.5,26.28-10.91,31.81-22.68,1.02-2.35,1.78-4.64,2.44-6.89,19.14,2.32,34.72,.2,44.5-11.38,10.98-36.75-18.71-95.8-45.29-128.59Z"/>
    <g>
      <path d="M151.96,286.64c-13.44-.89-26.9-1.9-40.41-2.79-9.1-.63-19.07,3.97-28.5,11.05,0,0,0,0,0,0-19.22,14.73-30.41,34.6-19.32,60.19,0,0,0,0,0,0,5.53,11.77,17.15,21.18,31.81,22.67,21.4,2.34,44.76-.67,66.56-8.55,14.93-5.32,27.32-17.22,33.63-28.5t0,0c12.79-24.67,2.19-32.97-16.12-43.63,0,0,0,0,0,0-9.01-5.03-18.58-9.82-27.64-10.46Z"/>
      <path class="cls-1" d="M150.93,274.68c-12.8-.89-25.62-1.9-38.49-2.79-8.67-.63-18.16,3.97-27.15,11.05,0,0,0,0,0,0-18.3,14.73-28.97,34.6-18.4,60.19,0,0,0,0,0,0,5.27,11.77,16.33,21.18,30.3,22.67,20.38,2.34,42.63-.67,63.39-8.55,14.22-5.32,26.02-17.22,32.03-28.5t0,0c12.18-24.67,2.09-32.97-15.36-43.63,0,0,0,0,0,0-8.58-5.03-17.7-9.82-26.32-10.46Z"/>
      <path d="M150.93,266.7c-12.8-.89-25.62-1.9-38.49-2.79-8.67-.63-18.16,3.97-27.15,11.05,0,0,0,0,0,0-18.3,14.73-28.97,34.6-18.4,60.19,0,0,0,0,0,0,5.27,11.77,16.33,21.18,30.3,22.67,20.38,2.34,42.63-.67,63.39-8.55,14.22-5.32,26.02-17.22,32.03-28.5t0,0c12.18-24.67,2.09-32.97-15.36-43.63,0,0,0,0,0,0-8.58-5.03-17.7-9.82-26.32-10.46Z"/>
    </g>
    <g>
      <path d="M251.92,286.64c13.44-.89,26.9-1.9,40.41-2.79,9.1-.63,19.07,3.97,28.5,11.05t0,0c19.22,14.73,30.41,34.6,19.32,60.19,0,0,0,0,0,0-5.53,11.77-17.15,21.18-31.81,22.67-21.4,2.34-44.76-.67-66.56-8.55-14.93-5.32-27.32-17.22-33.63-28.5t0,0c-12.79-24.67-2.19-32.97,16.12-43.63,0,0,0,0,0,0,9.01-5.03,18.58-9.82,27.64-10.46Z"/>
      <path class="cls-1" d="M252.94,274.68c12.8-.89,25.62-1.9,38.49-2.79,8.67-.63,18.16,3.97,27.15,11.05t0,0c18.3,14.73,28.97,34.6,18.4,60.19,0,0,0,0,0,0-5.27,11.77-16.33,21.18-30.3,22.67-20.38,2.34-42.63-.67-63.39-8.55-14.22-5.32-26.02-17.22-32.03-28.5t0,0c-12.18-24.67-2.09-32.97,15.36-43.63,0,0,0,0,0,0,8.58-5.03,17.7-9.82,26.32-10.46Z"/>
      <path d="M252.94,266.7c12.8-.89,25.62-1.9,38.49-2.79,8.67-.63,18.16,3.97,27.15,11.05t0,0c18.3,14.73,28.97,34.6,18.4,60.19,0,0,0,0,0,0-5.27,11.77-16.33,21.18-30.3,22.67-20.38,2.34-42.63-.67-63.39-8.55-14.22-5.32-26.02-17.22-32.03-28.5t0,0c-12.18-24.67-2.09-32.97,15.36-43.63,0,0,0,0,0,0,8.58-5.03,17.7-9.82,26.32-10.46Z"/>
    </g>
  </g>
  <g>
    <g>
      <path class="cls-1" d="M298.05,215.97c-21.05,26.65-61.96,47.42-98.05,46.71-36.09,.71-77.01-20.06-98.05-46.71-11.07-29.3-3.1-79.79,10.82-106.54,40.76-44.5,133.7-44.5,174.46,0,13.92,26.75,21.89,77.24,10.82,106.54Z"/>
      <path d="M304.96,206.46c-17.48,28.03-62.32,49.72-104.96,48.98-42.64,.75-87.48-20.95-104.96-48.98-6.58-30.84,9.01-84.01,24.08-112.21,42.44-47.01,119.33-47.01,161.77,0,15.07,28.2,30.66,81.37,24.08,112.21Z"/>
      <path class="cls-1" d="M288.72,187.91c-15.36,26.2-51.48,53.92-88.72,53.06-37.24,.86-73.36-26.87-88.72-53.06-5.67-27.72-2.08-76.45,6.75-106.08,15.44-25.27,48.71-40.65,81.97-40.42,33.27-.24,66.53,15.15,81.97,40.42,8.83,29.63,12.42,78.36,6.75,106.08Z"/>
      <path d="M307.47,182.53c-14.82,28.15-61.14,51.13-107.47,50.36-46.32,.77-92.65-22.22-107.47-50.36-3.46-30.79,15.67-83.99,30.69-112.72,42.06-48.41,111.51-48.41,153.56,0,15.02,28.73,34.14,81.93,30.69,112.72Z"/>
    </g>
    <g>
      <g>
        <path class="cls-1" d="M257.37,118.87c-7.69,11.56-26.56,24.51-57.37,24.8-30.81-.29-49.67-13.24-57.37-24.8-10.01-11.34,8.86-25.66,57.37-26.13,48.51,.47,67.37,14.79,57.37,26.13Z"/>
        <path class="cls-1" d="M257.13,162.34c11.62,20.98-13.46,52.68-57.13,54.56-43.67-1.88-68.75-33.58-57.13-54.56,12.05-23.24,31.68-44,57.13-43.98,25.45-.02,45.07,20.74,57.13,43.98Z"/>
      </g>
      <path d="M157.17,113.83c1.7-3.69,12.15-5.34,21.45-7.08,1.57,1.25,4.21,2.01,6.48,2.77,3.52,1.4,9.21,2.1,14.9,2.1,5.69,0,11.38-.7,14.9-2.1,.11,.16,6.89-2.52,6.73-2.68,9.47,1.8,19.49,3.47,21.2,6.99-5.46,5.75-18.39,10.98-27.68,14.73-1.25-.49-11.01-9.06-15.33-9.06-4.32,0-13.98,8.43-14.7,9.2-9.02-3.64-22.34-8.92-27.95-14.88t0,0Z"/>
      <g>
        <path d="M184.23,152.23c3.68,1.27,7.51,2.53,11.49,4.7-1.97-5.78-2.96-8.48-4.48-10.03-1.47-1.53-3.46-1.92-6.09-2.62-2.94,1.95-5.31,2.41-7.01,2.62-1.75,.19-2.82,.14-4.48,.63,3.37,2.17,6.89,3.44,10.57,4.7Z"/>
        <path d="M215.77,152.21c-3.68,1.27-7.51,2.53-11.49,4.7,1.97-5.78,2.96-8.48,4.48-10.03,1.47-1.53,3.46-1.92,6.09-2.62,2.94,1.95,5.31,2.41,7.01,2.62,1.75,.19,2.82,.14,4.48,.63-3.37,2.17-6.89,3.44-10.57,4.7Z"/>
      </g>
      <path class="cls-3" d="M200.73,171.32c-14.62-2.91-31.38,1.23-42.17,11.16,19.86-22.49,64.48-22.49,84.34,0-10.79-9.93-27.56-14.07-42.17-11.16Z"/>
    </g>
  </g>
  <g>
    <g>
      <path d="M349.81,230.97c-19.33,26.88-83.4,66.99-149.81,66.2-66.41,.79-130.48-39.31-149.81-66.2-.85-27.53,34.09-74.56,50.31-102.31,50.03-46.11,148.97-46.11,198.99,0,16.22,27.75,51.16,74.78,50.31,102.31Z"/>
      <path class="cls-1" d="M299.07,217c-21.26,26.99-62.61,48.04-99.07,47.32-36.46,.72-77.81-20.32-99.07-47.32-11.18-29.68-3.13-80.83,10.93-107.92,41.18-45.08,135.1-45.08,176.28,0,14.07,27.09,22.11,78.24,10.93,107.92Z"/>
      <path d="M306.06,207.38c-17.66,28.39-62.97,50.37-106.06,49.61-43.09,.75-88.39-21.22-106.06-49.61-6.65-31.24,9.11-85.1,24.33-113.67,42.88-47.62,120.57-47.62,163.45,0,15.22,28.57,30.97,82.43,24.33,113.67Z"/>
      <path class="cls-1" d="M289.64,188.61c-15.52,26.54-52.01,54.62-89.64,53.75-37.63,.87-74.12-27.21-89.64-53.75-5.73-28.08-2.1-77.44,6.82-107.45,15.6-25.6,49.21-41.18,82.83-40.94,33.61-.24,67.22,15.34,82.83,40.94,8.92,30.01,12.55,79.38,6.82,107.45Z"/>
      <path d="M308.59,183.17c-14.98,28.51-61.78,51.8-108.59,51.02-46.81,.78-93.61-22.5-108.59-51.02-3.49-31.19,15.83-85.08,31.01-114.18,42.49-49.04,112.67-49.04,155.16,0,15.17,29.1,34.5,83,31.01,114.18Z"/>
    </g>
    <g>
      <g>
        <path class="cls-1" d="M257.96,118.68c-7.77,11.71-26.84,24.83-57.96,25.12-31.13-.3-50.19-13.42-57.96-25.12-10.11-11.49,8.95-26,57.96-26.47,49.01,.47,68.08,14.98,57.96,26.47Z"/>
        <path class="cls-1" d="M257.72,162.72c11.74,21.25-13.6,53.36-57.72,55.27-44.13-1.91-69.46-34.02-57.72-55.27,12.18-23.54,32.01-44.57,57.72-44.55,25.71-.02,45.54,21.01,57.72,44.55Z"/>
      </g>
      <path d="M156.72,113.58c1.72-3.74,12.27-5.41,21.68-7.17,1.59,1.27,4.25,2.04,6.54,2.8,3.55,1.42,9.31,2.13,15.06,2.12,5.75,0,11.5-.71,15.06-2.12,.12,.16,6.96-2.55,6.8-2.71,9.57,1.82,19.69,3.51,21.42,7.08-5.52,5.82-18.59,11.13-27.97,14.93-1.26-.49-11.13-9.17-15.49-9.17-4.36,0-14.13,8.54-14.85,9.32-9.12-3.69-22.57-9.04-28.24-15.07t0,0Z"/>
      <g>
        <path d="M184.06,152.48c3.71,1.28,7.58,2.56,11.61,4.76-1.99-5.85-2.99-8.59-4.53-10.16-1.48-1.55-3.49-1.94-6.15-2.65-2.97,1.97-5.37,2.44-7.08,2.65-1.77,.2-2.85,.14-4.53,.64,3.41,2.2,6.96,3.48,10.68,4.76Z"/>
        <path d="M215.94,152.46c-3.71,1.28-7.58,2.56-11.61,4.76,1.99-5.85,2.99-8.59,4.53-10.16,1.48-1.55,3.49-1.94,6.15-2.65,2.97,1.97,5.37,2.44,7.08,2.65,1.77,.2,2.85,.14,4.53,.64-3.41,2.2-6.96,3.48-10.68,4.76Z"/>
      </g>
      <path class="cls-2" d="M200.74,171.82c-14.77-2.95-31.71,1.24-42.61,11.3,20.07-22.78,65.15-22.78,85.22,0-10.9-10.06-27.84-14.25-42.61-11.3Z"/>
    </g>
  </g>
</svg>